<?xml version="1.0" encoding="UTF-8"?>
<svg width="525.780729px" height="522.625707px" viewBox="0 0 525.780729 522.625707" version="1.1" xmlns="http://www.w3.org/2000/svg" xmlns:xlink="http://www.w3.org/1999/xlink">
    <title>icon/social/facebook</title>
    <defs>
        <rect id="path-1" x="0" y="0" width="631" height="631"></rect>
    </defs>
    <g id="Page-1" stroke="none" stroke-width="1" fill="none" fill-rule="evenodd">
        <g id="icon/social/facebook" transform="translate(-52.634684, -52.634684)">
            <mask id="mask-2" fill="white">
                <use xlink:href="#path-1"></use>
            </mask>
            <g id="brand-/-facebook-(Background/Mask)"></g>
            <path d="M52.6346842,315.525074 C52.6346842,446.720484 148.757021,555.462765 274.457483,575.260391 L274.457483,391.534277 L207.676651,391.534277 L207.676651,315.525074 L274.457483,315.525074 L274.457483,257.60453 C274.457483,191.665033 313.710942,155.303642 373.734817,155.303642 C392.910206,155.303642 412.541315,157.012604 432.628144,160.430528 L432.628144,225.081726 L399.395479,225.081726 C366.793812,225.081726 356.592639,245.378886 356.592639,266.175594 L356.592639,315.472469 L429.446845,315.472469 L417.799641,391.481697 L356.592639,391.481697 L356.592639,575.207836 C482.293101,555.515378 578.415413,446.746787 578.415413,315.525074 C578.415413,170.342495 460.707653,52.6346842 315.525074,52.6346842 C170.342495,52.6346842 52.6346842,170.342495 52.6346842,315.525074 Z" id="brand-/-facebook" fill="#FFFFFF" fill-rule="nonzero" mask="url(#mask-2)"></path>
        </g>
    </g>
</svg>