<?xml version="1.0" encoding="UTF-8"?>
<svg width="473.460318px" height="474.196482px" viewBox="0 0 473.460318 474.196482" version="1.1" xmlns="http://www.w3.org/2000/svg" xmlns:xlink="http://www.w3.org/1999/xlink">
    <title>icon/social/facebook copy</title>
    <defs>
        <rect id="path-1" x="0" y="0" width="631" height="631"></rect>
    </defs>
    <g id="Page-1" stroke="none" stroke-width="1" fill="none" fill-rule="evenodd">
        <g id="icon/social/instagram" transform="translate(-78.926351, -79.006587)">
            <mask id="mask-2" fill="white">
                <use xlink:href="#path-1"></use>
            </mask>
            <g id="brand-/-instagram-(Background/Mask)"></g>
            <path d="M193.92609,315.500125 C193.92609,382.649039 248.323555,437.072806 315.472469,437.072806 C382.568804,437.072806 437.018848,382.649039 437.018848,315.500125 C437.018848,248.377501 382.568804,193.953747 315.472469,193.953747 C248.323555,193.953747 193.92609,248.377501 193.92609,315.500125 Z M236.49231,315.526428 C236.49231,271.908552 271.854593,236.572546 315.472469,236.572546 C359.090345,236.572546 394.400074,271.908552 394.400074,315.526428 C394.400074,359.118011 359.090345,394.480284 315.472469,394.480284 C271.854593,394.480284 236.49231,359.118011 236.49231,315.526428 Z M470.198959,189.484161 C470.198959,173.831077 457.509598,161.141755 441.856515,161.141755 C426.20343,161.141755 413.514096,173.831077 413.514096,189.484161 C413.514096,205.137244 426.20343,217.82658 441.856515,217.82658 C457.509598,217.82658 470.198959,205.137244 470.198959,189.484161 Z M470.619595,91.4688361 C452.24172,84.5541275 432.812182,80.8470008 413.146015,80.4263341 C387.82714,79.3220841 379.808178,79.0065867 315.60393,79.0065867 C251.399683,79.0065867 243.170387,79.0065867 218.061846,80.4263341 C198.448263,80.8207091 179.018727,84.5278361 160.640852,91.4688361 C128.827934,103.747045 103.71939,128.881877 91.4148901,160.668502 C84.5001814,179.072668 80.7930591,198.475915 80.3986841,218.142082 C79.2681424,243.434666 78.9263509,251.453623 78.9263509,315.684166 C78.9263509,379.888414 78.9263509,388.065125 80.3986841,413.226251 C80.7930591,432.892418 84.5001814,452.29565 91.4148901,470.726108 C103.745682,502.48644 128.854224,527.621249 160.667142,539.925749 C178.966141,547.077082 198.395676,551.126019 218.114426,551.757019 C243.433301,552.861269 251.452262,553.203068 315.65651,553.203068 C379.860758,553.203068 388.090053,553.203068 413.198594,551.757019 C432.838469,551.362644 452.268033,547.62926 470.672199,540.740844 C502.458824,528.410052 527.567325,503.301501 539.898117,471.514876 C546.812826,453.110709 550.519967,433.707463 550.914342,414.041296 C552.044884,388.748712 552.386669,380.729755 552.386669,316.499212 C552.386669,252.268668 552.386669,244.118253 550.914342,218.957127 C550.57255,199.028043 546.89173,179.283002 539.845563,160.668502 C527.514771,128.881877 502.406219,103.747045 470.619595,91.4688361 Z M499.645572,455.660984 C491.626614,476.352526 475.299517,492.705929 454.634267,500.646012 C440.568224,505.878054 425.739722,508.612409 410.727181,508.822742 C385.750098,509.979575 378.703952,510.268792 314.657449,510.268792 C250.558367,510.268792 244.011722,510.268784 218.561389,508.822742 C203.601431,508.6387 188.720349,505.878054 174.6806,500.646012 C153.936476,492.732221 137.504187,476.378817 129.485228,455.660984 C124.332062,441.621234 121.545136,426.766451 121.308511,411.780201 C120.177969,386.803118 119.915053,379.756971 119.915053,315.710469 C119.915053,251.637676 119.915053,245.091033 121.308511,219.614409 C121.492553,204.470409 124.226895,189.484164 129.485228,175.260372 C137.504187,154.516248 153.936476,138.189125 174.6806,130.249042 C188.720349,125.043292 203.601431,122.28267 218.561389,122.072337 C243.564764,120.941795 250.584656,120.626287 314.657449,120.626287 C378.730242,120.626287 385.303139,120.626295 410.727181,122.072337 C425.739722,122.256379 440.568224,125.017 454.634267,130.249042 C475.299517,138.215417 491.626614,154.568831 499.645572,175.260372 C504.798739,189.300122 507.585677,204.154918 507.822302,219.141168 C508.952844,244.144542 509.242024,251.16441 509.242024,315.237203 C509.242024,379.283706 509.242044,386.172128 508.111502,411.30696 L507.822302,411.30696 L507.822302,411.280658 C507.63826,426.424657 504.903905,441.437192 499.645572,455.660984 Z" id="brand-/-instagram" fill="#FFFFFF" mask="url(#mask-2)"></path>
        </g>
    </g>
</svg>